<svg class="logo" viewBox="0 0 624 624" version="1.1" xmlns="http://www.w3.org/2000/svg" xmlns:xlink="http://www.w3.org/1999/xlink">
    <defs>
        <path d="M339.992229,326.337429 C344.900846,330.771604 353.418613,332.988658 365.545785,332.988658 L387,342 C360.435718,340.855697 321.657232,340.283554 313.572451,340.283554 C305.48767,340.283554 289.318349,340.855697 265.064005,342 L265.064005,332.988658 C275.747466,332.988658 283.182466,330.771604 287.369228,326.337429 C291.55599,321.903254 293.649339,313.821735 293.649339,302.092628 L293.649339,178.079395 C293.649339,167.208515 292.999679,158.411817 291.700339,151.689036 C290.400999,144.966255 287.369252,139.459379 282.605006,135.168242 C277.84076,130.877105 270.550129,128.731569 260.732894,128.731569 C249.760691,128.731569 239.799235,132.164427 230.848227,139.030246 C221.897219,145.896065 214.895326,155.264906 209.842338,167.137051 C204.789349,179.009196 202.262893,192.096967 202.262893,206.400756 L202.262893,302.092628 C202.262893,313.821735 204.717165,321.903254 209.625782,326.337429 C214.534399,330.771604 223.052166,332.988658 235.179338,332.988658 L235.179338,342 C208.615057,340.855697 191.290785,340.283554 183.206004,340.283554 C175.121222,340.283554 158.951902,340.855697 134.697558,342 L134.697558,332.988658 C145.381019,332.988658 152.816019,330.771604 157.002781,326.337429 C161.189543,321.903254 163.282892,313.821735 163.282892,302.092628 L163.282892,178.079395 C163.282892,167.208515 162.633232,158.411817 161.333892,151.689036 C160.034552,144.966255 157.002805,139.459379 152.238559,135.168242 C147.474313,130.877105 140.183682,128.731569 130.366447,128.731569 C119.394244,128.731569 109.432788,132.164427 100.48178,139.030246 C91.5307719,145.896065 84.5288789,155.336424 79.4758905,167.351607 C74.4229022,179.36679 71.8964459,192.526078 71.8964459,206.829868 L71.8964459,302.092628 C71.8964459,313.821735 73.9897954,321.903254 78.1765572,326.337429 C82.3633189,330.771604 89.7983188,332.988658 100.48178,332.988658 L100.48178,342 C76.2274359,340.855697 60.0581157,340.283554 51.9733344,340.283554 C43.8885531,340.283554 26.5642815,340.855697 0,342 L0,332.988658 C12.127172,332.988658 20.6449388,330.771604 25.5535561,326.337429 C30.4621733,321.903254 32.9164451,313.821735 32.9164451,302.092628 L32.9164451,167.780718 C32.9164451,154.621232 30.4621733,145.037837 25.5535561,139.030246 C20.6449388,133.022654 12.127172,130.018904 0,130.018904 L0,121.007561 C9.23975009,121.865789 18.1906237,122.294896 26.8528894,122.294896 C45.0436474,122.294896 60.0580161,120.292396 71.8964459,116.287335 L71.8964459,166.922495 C78.8262585,149.185797 88.6433457,136.098026 101.348002,127.65879 C114.052658,119.219555 127.912076,115 142.92667,115 C162.561139,115 177.575507,120.435358 187.970226,131.306238 C195.188781,138.744209 199.664218,150.187068 201.396671,165.635161 C208.615226,147.612386 218.576682,134.667651 231.281338,126.800567 C243.985994,118.933483 257.989781,115 273.293117,115 C292.927586,115 307.941954,120.435358 318.336673,131.306238 C323.534033,137.027754 327.21544,144.322577 329.381007,153.190926 C331.546573,162.059276 332.62934,173.502135 332.62934,187.519849 L332.62934,302.092628 C332.62934,313.821735 335.083612,321.903254 339.992229,326.337429 Z" id="path-1"></path>
    </defs>
        <g transform="translate(82, 120)">
            <path d="M460.236328,139.031368 C475.412185,159.056562 483,187.949623 483,225.711418 C483,250.599874 478.664106,271.769047 469.992187,289.219573 C461.320269,306.6701 449.68562,319.829316 435.087891,328.697616 C420.490161,337.565916 404.230558,342 386.308594,342 C375.613228,342 365.279347,339.854476 355.306641,335.563363 C345.333935,331.27225 336.589881,325.121746 329.074219,317.111669 L298.337721,330.073991 L291.414161,330.073991 C293.437609,322.922136 293.953125,324.406572 293.953125,314.966123 L293.953125,51.4930991 C293.953125,38.3336858 291.496118,28.7503437 286.582031,22.7427854 C281.667944,16.7352272 273.140686,13.7314931 261,13.7314931 L261,4.72020075 C270.250046,5.57842336 279.210894,6.00752823 287.882812,6.00752823 C306.093841,6.00752823 321.124941,4.00503885 332.976562,0 L332.976562,154.908407 C339.335969,140.318622 348.513612,129.018861 360.509766,121.008783 C372.505919,112.998705 385.874926,108.993726 400.617187,108.993726 C425.187623,108.993726 445.060471,119.006173 460.236328,139.031368 Z M426.416016,307.371372 C436.099658,290.063882 440.941406,263.244828 440.941406,226.913404 C440.941406,192.012351 436.605512,165.979989 427.933594,148.815537 C419.261675,131.651085 405.964933,123.068988 388.042969,123.068988 C375.902283,123.068988 364.773488,127.717624 354.65625,137.015035 C344.539012,146.312447 337.312522,159.400145 332.976563,176.278523 L332.976563,312.306127 C339.625033,319.171908 347.285113,324.392684 355.957031,327.968611 C364.62895,331.544539 373.589798,333.332476 382.839844,333.332476 C402.207128,333.332476 416.732373,324.678861 426.416016,307.371372 Z" id="Combined-Shape" fill="#000000"></path>
            <g id="mb">
                <use fill="#000000" fill-rule="evenodd" xlink:href="#path-1"></use>
                <use fill="black" fill-opacity="1" xlink:href="#path-1"></use>
            </g>
        </g>
</g>
</svg>