<svg version="1.1" class="logo" xmlns="http://www.w3.org/2000/svg" xmlns:xlink="http://www.w3.org/1999/xlink" x="0px" y="0px"
	 viewBox="0 0 400 400" style="enable-background:new 0 0 400 400;" xml:space="preserve">
<g>
	<path class="st0" d="M225.8,114.8c2.8,3.5,4.2,9,4.2,16.7v27.4c8.7,1.7,15.9,5.6,21.5,11.4l0.1,0.1l0.1,0.1
		c0.2,0.3,0.5,0.6,0.7,0.8v-69.7c-6.8,2.3-15.4,3.5-25.9,3.5c-5,0-10.1-0.3-15.4-0.7v5.2C218.1,109.6,223,111.3,225.8,114.8z"/>
	<path class="st0" d="M255.7,288.9c-0.1-0.1-0.2-0.3-0.3-0.4c-0.2-0.3-0.5-0.7-0.7-1.1c-0.1-0.2-0.2-0.4-0.3-0.6
		c-0.2-0.4-0.4-0.8-0.5-1.3c-0.1-0.2-0.1-0.4-0.2-0.5c-0.2-0.7-0.4-1.3-0.5-2.1c-0.4-2-0.6-4.2-0.6-6.8v-66.4c0-2.3-0.1-4.5-0.2-6.6
		l0,0v0c-0.1-1.3-0.1-2.5-0.2-3.7c0,0,0,0,0-0.1c-0.1-1.2-0.2-2.3-0.4-3.4c0,0,0-0.1,0-0.1c-0.1-0.9-0.3-1.9-0.4-2.7
		c0-0.2-0.1-0.4-0.1-0.6c-0.2-0.9-0.3-1.8-0.6-2.6c-1.2-5.1-3.4-9.4-6.3-12.7c-0.7-0.7-1.4-1.4-2.1-2c-0.2-0.1-0.3-0.3-0.5-0.4
		c-0.7-0.6-1.5-1.1-2.3-1.7c-0.1-0.1-0.3-0.2-0.4-0.3c-0.7-0.4-1.4-0.9-2.2-1.3c-0.2-0.1-0.3-0.2-0.5-0.3c-0.9-0.4-1.7-0.8-2.6-1.1
		c-0.2-0.1-0.5-0.2-0.7-0.3c-0.9-0.3-1.8-0.6-2.7-0.8c-3.5-0.9-7.5-1.4-11.8-1.4c-8.8,0-16.8,2.3-24.1,6.8
		c-7.3,4.6-13,12.1-17.2,22.5c-1-9-3.6-15.6-7.7-19.9c-6-6.3-14.6-9.5-25.9-9.5c-8.6,0-16.6,2.4-23.9,7.3
		c-7.3,4.9-12.9,12.5-16.9,22.8v-29.3c-6.8,2.3-15.4,3.5-25.9,3.5c-5,0-10.1-0.3-15.4-0.7v5.2c7,0,11.9,1.7,14.7,5.2
		c2.8,3.5,4.2,9,4.2,16.7V276c0,6.8-1.4,11.5-4.2,14c-2.8,2.6-7.7,3.9-14.7,3.9v5.2c15.3-0.7,25.2-1,29.9-1c4.6,0,13.9,0.3,27.9,1
		V294c-6.1,0-10.4-1.3-12.8-3.9c-2.4-2.6-3.6-7.2-3.6-14v-55.2c0-8.3,1.5-15.9,4.4-22.9c2.9-7,6.9-12.4,12.1-16.4
		c5.1-4,10.9-6,17.2-6c5.6,0,9.8,1.2,12.6,3.7c2.7,2.5,4.5,5.7,5.2,9.6c0.7,3.9,1.1,9,1.1,15.3V276c0,6.8-1.2,11.5-3.6,14
		c-2.4,2.6-6.7,3.9-12.8,3.9v5.2c13.9-0.7,23.2-1,27.9-1c4.6,0,14.6,0.3,29.9,1V294c-7,0-11.9-1.3-14.7-3.9c-2.8-2.6-4.2-7.2-4.2-14
		v-55.5c0-8.3,1.4-15.9,4.4-22.8c2.9-6.9,6.9-12.3,12.1-16.3c5.1-4,10.8-6,17.2-6c5.6,0,9.8,1.2,12.5,3.7c2.7,2.5,4.5,5.7,5.2,9.6
		c0.4,2.3,0.8,5.1,0.9,8.2c0.1,1,0.1,2.1,0.1,3.3c0,0.1,0,0.3,0,0.4c0,1.1,0,2.3,0,3.5V276c0,0.8,0,1.5-0.1,2.2c0,0.7-0.1,1.4-0.1,2
		c-0.4,4.5-1.6,7.8-3.4,9.8c-2.4,2.6-6.7,3.9-12.8,3.9v5.2c13.9-0.7,23.2-1,27.9-1c4.6,0,9.7,0.1,25,0.8v0v-5.2c-7,0-7-1.1-9.8-3.7
		C256.4,289.7,256,289.3,255.7,288.9z"/>
	<path class="st0" d="M325.4,182.2c-8.7-11.6-20.1-17.4-34.2-17.4c-8.5,0-16.1,2.3-23,7c-3.8,2.6-7.1,5.7-9.9,9.5
		c0.6,1.5,1.2,3.2,1.6,4.8c1.5-2.1,3.1-4,4.9-5.7c5.8-5.4,12.2-8.1,19.2-8.1c10.3,0,17.9,5,22.9,14.9c5,9.9,7.5,25,7.5,45.3
		c0,21-2.8,36.6-8.3,46.6c-5.6,10-13.9,15-25,15c-1.4,0-2.9,0-4.5,0v4.8v0.2c2.2,0,4.4,0,6.4,0c10.3,0,19.7-1.9,28.1-7
		c8.4-5.1,15-12.8,20-22.9c5-10.1,7.5-22.4,7.5-36.8C338.4,210.6,334.1,193.8,325.4,182.2z"/>
</g>
</svg>
